<mxfile host="Electron" agent="Mozilla/5.0 (Windows NT 10.0; Win64; x64) AppleWebKit/537.36 (KHTML, like Gecko) draw.io/27.0.9 Chrome/134.0.6998.205 Electron/35.4.0 Safari/537.36" version="27.0.9">
  <diagram name="Pagina-1" id="kVEDOBx-vGvVJcplBJua">
    <mxGraphModel dx="1042" dy="722" grid="1" gridSize="10" guides="1" tooltips="1" connect="1" arrows="1" fold="1" page="1" pageScale="1" pageWidth="827" pageHeight="1169" math="0" shadow="0">
      <root>
        <mxCell id="0" />
        <mxCell id="1" parent="0" />
        <mxCell id="eneN3tcpKXe0T1b7AaBC-41" style="edgeStyle=orthogonalEdgeStyle;rounded=0;orthogonalLoop=1;jettySize=auto;html=1;endArrow=halfCircle;endFill=0;fontStyle=1;fontColor=#FFFFFF;strokeColor=#7EA6E0;" parent="1" source="eneN3tcpKXe0T1b7AaBC-1" edge="1">
          <mxGeometry relative="1" as="geometry">
            <mxPoint x="125" y="320" as="targetPoint" />
          </mxGeometry>
        </mxCell>
        <mxCell id="eneN3tcpKXe0T1b7AaBC-56" style="rounded=0;orthogonalLoop=1;jettySize=auto;html=1;exitX=0.75;exitY=1;exitDx=0;exitDy=0;endArrow=halfCircle;endFill=0;strokeColor=#7EA6E0;" parent="1" source="NXE6n55Ot2JvCNbNsOe8-2" edge="1">
          <mxGeometry relative="1" as="geometry">
            <mxPoint x="210" y="220" as="targetPoint" />
          </mxGeometry>
        </mxCell>
        <mxCell id="eneN3tcpKXe0T1b7AaBC-1" value="&lt;span&gt;Utenti&lt;/span&gt;" style="html=1;dropTarget=0;whiteSpace=wrap;fillColor=#FF8000;strokeColor=none;fontStyle=1;fontColor=#FFFFFF;" parent="1" vertex="1">
          <mxGeometry x="60" y="100" width="130" height="60" as="geometry" />
        </mxCell>
        <mxCell id="eneN3tcpKXe0T1b7AaBC-2" value="" style="shape=module;jettyWidth=8;jettyHeight=4;fillColor=#FF8000;gradientColor=none;strokeColor=#FFFFFF;fontStyle=1;fontColor=#FFFFFF;" parent="eneN3tcpKXe0T1b7AaBC-1" vertex="1">
          <mxGeometry x="1" width="20" height="20" relative="1" as="geometry">
            <mxPoint x="-27" y="7" as="offset" />
          </mxGeometry>
        </mxCell>
        <mxCell id="eneN3tcpKXe0T1b7AaBC-57" style="rounded=0;orthogonalLoop=1;jettySize=auto;html=1;exitX=0.25;exitY=1;exitDx=0;exitDy=0;endArrow=halfCircle;endFill=0;strokeColor=#7EA6E0;" parent="1" source="NXE6n55Ot2JvCNbNsOe8-4" edge="1">
          <mxGeometry relative="1" as="geometry">
            <mxPoint x="220" y="220" as="targetPoint" />
          </mxGeometry>
        </mxCell>
        <mxCell id="NXE6n55Ot2JvCNbNsOe8-21" style="rounded=0;orthogonalLoop=1;jettySize=auto;html=1;exitX=0.75;exitY=1;exitDx=0;exitDy=0;endArrow=halfCircle;endFill=0;strokeColor=#7EA6E0;" edge="1" parent="1" source="eneN3tcpKXe0T1b7AaBC-19">
          <mxGeometry relative="1" as="geometry">
            <mxPoint x="370" y="250" as="targetPoint" />
          </mxGeometry>
        </mxCell>
        <mxCell id="eneN3tcpKXe0T1b7AaBC-19" value="&lt;span&gt;EntiLocali&lt;/span&gt;" style="html=1;dropTarget=0;whiteSpace=wrap;strokeColor=none;fillColor=#FF8000;fontStyle=1;fontColor=#FFFFFF;" parent="1" vertex="1">
          <mxGeometry x="240" y="100" width="130" height="60" as="geometry" />
        </mxCell>
        <mxCell id="eneN3tcpKXe0T1b7AaBC-20" value="" style="shape=module;jettyWidth=8;jettyHeight=4;strokeColor=#FFFFFF;fillColor=#FF8000;fontStyle=1;fontColor=#FFFFFF;" parent="eneN3tcpKXe0T1b7AaBC-19" vertex="1">
          <mxGeometry x="1" width="20" height="20" relative="1" as="geometry">
            <mxPoint x="-27" y="7" as="offset" />
          </mxGeometry>
        </mxCell>
        <mxCell id="eneN3tcpKXe0T1b7AaBC-55" style="edgeStyle=orthogonalEdgeStyle;rounded=0;orthogonalLoop=1;jettySize=auto;html=1;endArrow=oval;endFill=0;strokeColor=#7EA6E0;" parent="1" source="eneN3tcpKXe0T1b7AaBC-23" edge="1">
          <mxGeometry relative="1" as="geometry">
            <mxPoint x="215" y="220" as="targetPoint" />
          </mxGeometry>
        </mxCell>
        <mxCell id="eneN3tcpKXe0T1b7AaBC-23" value="&lt;span&gt;&lt;font style=&quot;&quot;&gt;ServerLogin&lt;/font&gt;&lt;/span&gt;" style="html=1;dropTarget=0;whiteSpace=wrap;strokeColor=none;fillColor=#60A917;fontStyle=1;fontColor=#FFFFFF;" parent="1" vertex="1">
          <mxGeometry x="150" y="250" width="130" height="60" as="geometry" />
        </mxCell>
        <mxCell id="eneN3tcpKXe0T1b7AaBC-24" value="" style="shape=module;jettyWidth=8;jettyHeight=4;fillColor=#60A917;strokeColor=#FFFFFF;fontStyle=1;fontColor=#FFFFFF;" parent="eneN3tcpKXe0T1b7AaBC-23" vertex="1">
          <mxGeometry x="1" width="20" height="20" relative="1" as="geometry">
            <mxPoint x="-27" y="7" as="offset" />
          </mxGeometry>
        </mxCell>
        <mxCell id="eneN3tcpKXe0T1b7AaBC-38" style="edgeStyle=orthogonalEdgeStyle;rounded=0;orthogonalLoop=1;jettySize=auto;html=1;endArrow=oval;endFill=0;fontStyle=1;fontColor=#FFFFFF;strokeColor=#7EA6E0;" parent="1" source="eneN3tcpKXe0T1b7AaBC-25" edge="1">
          <mxGeometry relative="1" as="geometry">
            <mxPoint x="125" y="320" as="targetPoint" />
          </mxGeometry>
        </mxCell>
        <mxCell id="eneN3tcpKXe0T1b7AaBC-52" style="rounded=0;orthogonalLoop=1;jettySize=auto;html=1;exitX=1;exitY=1;exitDx=0;exitDy=0;endArrow=halfCircle;endFill=0;fontStyle=1;strokeColor=#7EA6E0;" parent="1" source="eneN3tcpKXe0T1b7AaBC-25" edge="1">
          <mxGeometry relative="1" as="geometry">
            <mxPoint x="490" y="470" as="targetPoint" />
          </mxGeometry>
        </mxCell>
        <mxCell id="eneN3tcpKXe0T1b7AaBC-25" value="ServerUtenti" style="html=1;dropTarget=0;whiteSpace=wrap;strokeColor=none;fillColor=#60A917;fontStyle=1;fontColor=#FFFFFF;" parent="1" vertex="1">
          <mxGeometry x="60" y="360" width="130" height="60" as="geometry" />
        </mxCell>
        <mxCell id="eneN3tcpKXe0T1b7AaBC-26" value="" style="shape=module;jettyWidth=8;jettyHeight=4;strokeColor=#FFFFFF;fillColor=#60A917;fontStyle=1;fontColor=#FFFFFF;" parent="eneN3tcpKXe0T1b7AaBC-25" vertex="1">
          <mxGeometry x="1" width="20" height="20" relative="1" as="geometry">
            <mxPoint x="-27" y="7" as="offset" />
          </mxGeometry>
        </mxCell>
        <mxCell id="eneN3tcpKXe0T1b7AaBC-50" style="rounded=0;orthogonalLoop=1;jettySize=auto;html=1;exitX=0;exitY=1;exitDx=0;exitDy=0;endArrow=halfCircle;endFill=0;fontStyle=1;strokeColor=#7EA6E0;" parent="1" source="eneN3tcpKXe0T1b7AaBC-27" edge="1">
          <mxGeometry relative="1" as="geometry">
            <mxPoint x="240" y="480" as="targetPoint" />
          </mxGeometry>
        </mxCell>
        <mxCell id="eneN3tcpKXe0T1b7AaBC-53" style="edgeStyle=orthogonalEdgeStyle;rounded=0;orthogonalLoop=1;jettySize=auto;html=1;endArrow=oval;endFill=0;strokeColor=#7EA6E0;" parent="1" source="eneN3tcpKXe0T1b7AaBC-27" edge="1">
          <mxGeometry relative="1" as="geometry">
            <mxPoint x="655" y="310" as="targetPoint" />
          </mxGeometry>
        </mxCell>
        <mxCell id="eneN3tcpKXe0T1b7AaBC-27" value="ServerSensori" style="html=1;dropTarget=0;whiteSpace=wrap;strokeColor=none;fillColor=#60A917;fontStyle=1;fontColor=#FFFFFF;" parent="1" vertex="1">
          <mxGeometry x="580" y="360" width="150" height="60" as="geometry" />
        </mxCell>
        <mxCell id="eneN3tcpKXe0T1b7AaBC-28" value="" style="shape=module;jettyWidth=8;jettyHeight=4;strokeColor=#FFFFFF;fillColor=#60A917;fontStyle=1;fontColor=#FFFFFF;" parent="eneN3tcpKXe0T1b7AaBC-27" vertex="1">
          <mxGeometry x="1" width="20" height="20" relative="1" as="geometry">
            <mxPoint x="-27" y="7" as="offset" />
          </mxGeometry>
        </mxCell>
        <mxCell id="eneN3tcpKXe0T1b7AaBC-49" style="rounded=0;orthogonalLoop=1;jettySize=auto;html=1;exitX=0.25;exitY=1;exitDx=0;exitDy=0;endArrow=halfCircle;endFill=0;fontStyle=1;strokeColor=#7EA6E0;" parent="1" source="eneN3tcpKXe0T1b7AaBC-29" edge="1">
          <mxGeometry relative="1" as="geometry">
            <mxPoint x="240" y="480" as="targetPoint" />
          </mxGeometry>
        </mxCell>
        <mxCell id="eneN3tcpKXe0T1b7AaBC-51" style="rounded=0;orthogonalLoop=1;jettySize=auto;html=1;exitX=0.75;exitY=1;exitDx=0;exitDy=0;endArrow=halfCircle;endFill=0;fontStyle=1;strokeColor=#7EA6E0;" parent="1" source="eneN3tcpKXe0T1b7AaBC-29" edge="1">
          <mxGeometry relative="1" as="geometry">
            <mxPoint x="490" y="470" as="targetPoint" />
          </mxGeometry>
        </mxCell>
        <mxCell id="NXE6n55Ot2JvCNbNsOe8-20" style="rounded=0;orthogonalLoop=1;jettySize=auto;html=1;exitX=0.25;exitY=0;exitDx=0;exitDy=0;endArrow=oval;endFill=0;strokeColor=#7EA6E0;" edge="1" parent="1" source="eneN3tcpKXe0T1b7AaBC-29">
          <mxGeometry relative="1" as="geometry">
            <mxPoint x="368" y="250" as="targetPoint" />
          </mxGeometry>
        </mxCell>
        <mxCell id="eneN3tcpKXe0T1b7AaBC-29" value="ServerEntiLocali" style="html=1;dropTarget=0;whiteSpace=wrap;fillColor=#60A917;strokeColor=none;fontStyle=1;fontColor=#FFFFFF;" parent="1" vertex="1">
          <mxGeometry x="330" y="310" width="150" height="60" as="geometry" />
        </mxCell>
        <mxCell id="eneN3tcpKXe0T1b7AaBC-30" value="" style="shape=module;jettyWidth=8;jettyHeight=4;strokeColor=#FFFFFF;fillColor=#60A917;fontStyle=1;fontColor=#FFFFFF;" parent="eneN3tcpKXe0T1b7AaBC-29" vertex="1">
          <mxGeometry x="1" width="20" height="20" relative="1" as="geometry">
            <mxPoint x="-27" y="7" as="offset" />
          </mxGeometry>
        </mxCell>
        <mxCell id="eneN3tcpKXe0T1b7AaBC-54" style="edgeStyle=orthogonalEdgeStyle;rounded=0;orthogonalLoop=1;jettySize=auto;html=1;endArrow=halfCircle;endFill=0;strokeColor=#7EA6E0;" parent="1" source="eneN3tcpKXe0T1b7AaBC-31" edge="1">
          <mxGeometry relative="1" as="geometry">
            <mxPoint x="655" y="310" as="targetPoint" />
          </mxGeometry>
        </mxCell>
        <mxCell id="eneN3tcpKXe0T1b7AaBC-31" value="&lt;span&gt;Sensori&lt;/span&gt;" style="html=1;dropTarget=0;whiteSpace=wrap;fontStyle=1;fillColor=#808080;strokeColor=none;fontColor=#FFFFFF;" parent="1" vertex="1">
          <mxGeometry x="590" y="100" width="130" height="60" as="geometry" />
        </mxCell>
        <mxCell id="eneN3tcpKXe0T1b7AaBC-32" value="" style="shape=module;jettyWidth=8;jettyHeight=4;fontStyle=1;strokeColor=#FFFFFF;fillColor=#808080;" parent="eneN3tcpKXe0T1b7AaBC-31" vertex="1">
          <mxGeometry x="1" width="20" height="20" relative="1" as="geometry">
            <mxPoint x="-27" y="7" as="offset" />
          </mxGeometry>
        </mxCell>
        <mxCell id="eneN3tcpKXe0T1b7AaBC-46" style="edgeStyle=orthogonalEdgeStyle;rounded=0;orthogonalLoop=1;jettySize=auto;html=1;endArrow=oval;endFill=0;fontStyle=1;strokeColor=#7EA6E0;" parent="1" source="eneN3tcpKXe0T1b7AaBC-34" edge="1">
          <mxGeometry relative="1" as="geometry">
            <mxPoint x="495" y="470" as="targetPoint" />
          </mxGeometry>
        </mxCell>
        <mxCell id="eneN3tcpKXe0T1b7AaBC-34" value="Log" style="html=1;dropTarget=0;whiteSpace=wrap;fontStyle=1" parent="1" vertex="1">
          <mxGeometry x="430" y="510" width="130" height="60" as="geometry" />
        </mxCell>
        <mxCell id="eneN3tcpKXe0T1b7AaBC-35" value="" style="shape=module;jettyWidth=8;jettyHeight=4;fontStyle=1" parent="eneN3tcpKXe0T1b7AaBC-34" vertex="1">
          <mxGeometry x="1" width="20" height="20" relative="1" as="geometry">
            <mxPoint x="-27" y="7" as="offset" />
          </mxGeometry>
        </mxCell>
        <mxCell id="eneN3tcpKXe0T1b7AaBC-45" style="edgeStyle=orthogonalEdgeStyle;rounded=0;orthogonalLoop=1;jettySize=auto;html=1;endArrow=oval;endFill=0;fontStyle=1;strokeColor=#7EA6E0;" parent="1" source="eneN3tcpKXe0T1b7AaBC-36" edge="1">
          <mxGeometry relative="1" as="geometry">
            <mxPoint x="235" y="480" as="targetPoint" />
          </mxGeometry>
        </mxCell>
        <mxCell id="eneN3tcpKXe0T1b7AaBC-36" value="DBMS" style="html=1;dropTarget=0;whiteSpace=wrap;fontStyle=1" parent="1" vertex="1">
          <mxGeometry x="170" y="530" width="130" height="60" as="geometry" />
        </mxCell>
        <mxCell id="eneN3tcpKXe0T1b7AaBC-37" value="" style="shape=module;jettyWidth=8;jettyHeight=4;fontStyle=1" parent="eneN3tcpKXe0T1b7AaBC-36" vertex="1">
          <mxGeometry x="1" width="20" height="20" relative="1" as="geometry">
            <mxPoint x="-27" y="7" as="offset" />
          </mxGeometry>
        </mxCell>
        <mxCell id="eneN3tcpKXe0T1b7AaBC-48" value="" style="endArrow=none;html=1;rounded=0;entryX=0.452;entryY=1.013;entryDx=0;entryDy=0;entryPerimeter=0;endFill=0;startFill=0;startArrow=halfCircle;fontStyle=1;strokeColor=#7EA6E0;" parent="1" target="eneN3tcpKXe0T1b7AaBC-25" edge="1">
          <mxGeometry width="50" height="50" relative="1" as="geometry">
            <mxPoint x="230" y="480" as="sourcePoint" />
            <mxPoint x="440" y="450" as="targetPoint" />
          </mxGeometry>
        </mxCell>
        <mxCell id="NXE6n55Ot2JvCNbNsOe8-1" value="&lt;font style=&quot;color: rgb(126, 166, 224);&quot;&gt;richiesta&lt;/font&gt;" style="text;strokeColor=none;align=center;fillColor=none;html=1;verticalAlign=middle;whiteSpace=wrap;rounded=0;" vertex="1" parent="1">
          <mxGeometry x="70" y="160" width="60" height="30" as="geometry" />
        </mxCell>
        <mxCell id="NXE6n55Ot2JvCNbNsOe8-3" value="&lt;font style=&quot;color: rgb(126, 166, 224);&quot;&gt;richiesta&lt;/font&gt;" style="text;strokeColor=none;align=center;fillColor=none;html=1;verticalAlign=middle;whiteSpace=wrap;rounded=0;" vertex="1" parent="1">
          <mxGeometry x="340" y="160" width="60" height="30" as="geometry" />
        </mxCell>
        <mxCell id="NXE6n55Ot2JvCNbNsOe8-5" value="" style="rounded=0;orthogonalLoop=1;jettySize=auto;html=1;exitX=0.25;exitY=1;exitDx=0;exitDy=0;endArrow=halfCircle;endFill=0;strokeColor=#7EA6E0;" edge="1" parent="1" source="eneN3tcpKXe0T1b7AaBC-19" target="NXE6n55Ot2JvCNbNsOe8-4">
          <mxGeometry relative="1" as="geometry">
            <mxPoint x="220" y="220" as="targetPoint" />
            <mxPoint x="273" y="160" as="sourcePoint" />
          </mxGeometry>
        </mxCell>
        <mxCell id="NXE6n55Ot2JvCNbNsOe8-4" value="&lt;font style=&quot;color: rgb(126, 166, 224);&quot;&gt;richiesta&lt;/font&gt;" style="text;strokeColor=none;align=center;fillColor=none;html=1;verticalAlign=middle;whiteSpace=wrap;rounded=0;" vertex="1" parent="1">
          <mxGeometry x="240" y="160" width="60" height="30" as="geometry" />
        </mxCell>
        <mxCell id="NXE6n55Ot2JvCNbNsOe8-6" value="" style="rounded=0;orthogonalLoop=1;jettySize=auto;html=1;exitX=0.75;exitY=1;exitDx=0;exitDy=0;endArrow=halfCircle;endFill=0;strokeColor=#7EA6E0;" edge="1" parent="1" source="eneN3tcpKXe0T1b7AaBC-1" target="NXE6n55Ot2JvCNbNsOe8-2">
          <mxGeometry relative="1" as="geometry">
            <mxPoint x="210" y="220" as="targetPoint" />
            <mxPoint x="158" y="160" as="sourcePoint" />
          </mxGeometry>
        </mxCell>
        <mxCell id="NXE6n55Ot2JvCNbNsOe8-2" value="&lt;font style=&quot;color: rgb(126, 166, 224);&quot;&gt;richiesta&lt;/font&gt;" style="text;strokeColor=none;align=center;fillColor=none;html=1;verticalAlign=middle;whiteSpace=wrap;rounded=0;" vertex="1" parent="1">
          <mxGeometry x="140" y="160" width="60" height="30" as="geometry" />
        </mxCell>
        <mxCell id="NXE6n55Ot2JvCNbNsOe8-7" value="&lt;font style=&quot;color: rgb(126, 166, 224);&quot;&gt;richiesta&lt;/font&gt;" style="text;strokeColor=none;align=center;fillColor=none;html=1;verticalAlign=middle;whiteSpace=wrap;rounded=0;" vertex="1" parent="1">
          <mxGeometry x="650" y="160" width="60" height="30" as="geometry" />
        </mxCell>
        <mxCell id="NXE6n55Ot2JvCNbNsOe8-8" value="&lt;font style=&quot;color: rgb(126, 166, 224);&quot;&gt;servizio&lt;/font&gt;" style="text;strokeColor=none;align=center;fillColor=none;html=1;verticalAlign=middle;whiteSpace=wrap;rounded=0;" vertex="1" parent="1">
          <mxGeometry x="190" y="220" width="60" height="30" as="geometry" />
        </mxCell>
        <mxCell id="NXE6n55Ot2JvCNbNsOe8-12" value="&lt;font style=&quot;color: rgb(126, 166, 224);&quot;&gt;servizio&lt;/font&gt;" style="text;strokeColor=none;align=center;fillColor=none;html=1;verticalAlign=middle;whiteSpace=wrap;rounded=0;" vertex="1" parent="1">
          <mxGeometry x="70" y="330" width="60" height="30" as="geometry" />
        </mxCell>
        <mxCell id="NXE6n55Ot2JvCNbNsOe8-13" value="&lt;font style=&quot;color: rgb(126, 166, 224);&quot;&gt;servizio&lt;/font&gt;" style="text;strokeColor=none;align=center;fillColor=none;html=1;verticalAlign=middle;whiteSpace=wrap;rounded=0;" vertex="1" parent="1">
          <mxGeometry x="650" y="330" width="60" height="30" as="geometry" />
        </mxCell>
        <mxCell id="NXE6n55Ot2JvCNbNsOe8-14" value="&lt;font style=&quot;color: rgb(126, 166, 224);&quot;&gt;servizio&lt;/font&gt;" style="text;strokeColor=none;align=center;fillColor=none;html=1;verticalAlign=middle;whiteSpace=wrap;rounded=0;" vertex="1" parent="1">
          <mxGeometry x="360" y="280" width="60" height="30" as="geometry" />
        </mxCell>
        <mxCell id="NXE6n55Ot2JvCNbNsOe8-15" value="&lt;font style=&quot;color: rgb(126, 166, 224);&quot;&gt;query&lt;/font&gt;" style="text;strokeColor=none;align=center;fillColor=none;html=1;verticalAlign=middle;whiteSpace=wrap;rounded=0;" vertex="1" parent="1">
          <mxGeometry x="180" y="500" width="60" height="30" as="geometry" />
        </mxCell>
        <mxCell id="NXE6n55Ot2JvCNbNsOe8-16" value="&lt;font style=&quot;color: rgb(126, 166, 224);&quot;&gt;query&lt;/font&gt;" style="text;strokeColor=none;align=center;fillColor=none;html=1;verticalAlign=middle;whiteSpace=wrap;rounded=0;" vertex="1" parent="1">
          <mxGeometry x="80" y="420" width="60" height="30" as="geometry" />
        </mxCell>
        <mxCell id="NXE6n55Ot2JvCNbNsOe8-17" value="&lt;font style=&quot;color: rgb(126, 166, 224);&quot;&gt;query&lt;/font&gt;" style="text;strokeColor=none;align=center;fillColor=none;html=1;verticalAlign=middle;whiteSpace=wrap;rounded=0;" vertex="1" parent="1">
          <mxGeometry x="550" y="420" width="60" height="30" as="geometry" />
        </mxCell>
        <mxCell id="NXE6n55Ot2JvCNbNsOe8-22" value="&lt;font style=&quot;color: rgb(126, 166, 224);&quot;&gt;query&lt;/font&gt;" style="text;strokeColor=none;align=center;fillColor=none;html=1;verticalAlign=middle;whiteSpace=wrap;rounded=0;" vertex="1" parent="1">
          <mxGeometry x="340" y="375" width="60" height="30" as="geometry" />
        </mxCell>
        <mxCell id="NXE6n55Ot2JvCNbNsOe8-23" value="&lt;font style=&quot;color: rgb(126, 166, 224);&quot;&gt;log&lt;/font&gt;" style="text;strokeColor=none;align=center;fillColor=none;html=1;verticalAlign=middle;whiteSpace=wrap;rounded=0;" vertex="1" parent="1">
          <mxGeometry x="480" y="480" width="60" height="30" as="geometry" />
        </mxCell>
        <mxCell id="NXE6n55Ot2JvCNbNsOe8-24" value="&lt;font style=&quot;color: rgb(126, 166, 224);&quot;&gt;log&lt;/font&gt;" style="text;strokeColor=none;align=center;fillColor=none;html=1;verticalAlign=middle;whiteSpace=wrap;rounded=0;" vertex="1" parent="1">
          <mxGeometry x="180" y="390" width="60" height="30" as="geometry" />
        </mxCell>
        <mxCell id="NXE6n55Ot2JvCNbNsOe8-25" value="&lt;font style=&quot;color: rgb(126, 166, 224);&quot;&gt;log&lt;/font&gt;" style="text;strokeColor=none;align=center;fillColor=none;html=1;verticalAlign=middle;whiteSpace=wrap;rounded=0;" vertex="1" parent="1">
          <mxGeometry x="440" y="370" width="60" height="30" as="geometry" />
        </mxCell>
      </root>
    </mxGraphModel>
  </diagram>
</mxfile>
